<svg width="24" height="24" viewBox="0 0 24 24" fill="none" xmlns="http://www.w3.org/2000/svg">
<path d="M17.5034 0H6.49658C2.91431 0 0 2.91431 0 6.49658V17.5036C0 21.0857 2.91431 24 6.49658 24H17.5036C21.0857 24 24 21.0857 24 17.5036V6.49658C24 2.91431 21.0857 0 17.5034 0V0ZM12 18.5623C8.38147 18.5623 5.43768 15.6185 5.43768 12C5.43768 8.38147 8.38147 5.43768 12 5.43768C15.6185 5.43768 18.5623 8.38147 18.5623 12C18.5623 15.6185 15.6185 18.5623 12 18.5623ZM18.7192 6.98529C17.6499 6.98529 16.7802 6.11554 16.7802 5.0462C16.7802 3.97687 17.6499 3.10693 18.7192 3.10693C19.7886 3.10693 20.6585 3.97687 20.6585 5.0462C20.6585 6.11554 19.7886 6.98529 18.7192 6.98529Z" fill="white"/>
<path d="M12.0001 6.84448C9.15753 6.84448 6.84473 9.1571 6.84473 11.9998C6.84473 14.8423 9.15753 17.1552 12.0001 17.1552C14.8428 17.1552 17.1554 14.8423 17.1554 11.9998C17.1554 9.1571 14.8428 6.84448 12.0001 6.84448Z" fill="white"/>
<path d="M18.7186 4.51392C18.4253 4.51392 18.1865 4.75269 18.1865 5.04602C18.1865 5.33936 18.4253 5.57812 18.7186 5.57812C19.0121 5.57812 19.2509 5.33954 19.2509 5.04602C19.2509 4.7525 19.0121 4.51392 18.7186 4.51392Z" fill="white"/>
</svg>
